<svg width="391" height="78" viewBox="0 0 391 78" fill="none" xmlns="http://www.w3.org/2000/svg">
<path d="M154.81 0.161322C149.037 1.25889 144.94 4.51931 143.166 9.3938C142.425 11.4275 142.425 11.5567 142.231 31.9262C142.005 53.813 141.973 54.1359 140.328 57.364C138.264 61.3669 133.232 63.4006 127.329 62.6259C121.879 61.8834 119.008 59.5269 117.46 54.3618C117.04 52.9737 116.944 49.0354 116.847 27.8911C116.718 3.16349 116.718 1.29117 116.073 0.710107C115.492 0.225885 114.654 0.161322 110.138 0.161322C105.235 0.161322 104.88 0.193606 104.3 0.839234C103.719 1.48486 103.687 4.16422 103.59 26.2447C103.461 56.0405 103.687 58.9781 106.332 63.8848C109.17 69.1467 113.879 72.8268 120.137 74.7314C122.846 75.5707 123.459 75.6353 129.168 75.6353C133.264 75.6676 135.877 75.5384 137.07 75.2479C144.199 73.5047 149.972 69.2758 152.746 63.7234C154.842 59.4623 154.81 60.1079 154.81 36.7039C154.81 22.4678 154.939 15.2045 155.165 14.5911C156.229 11.7181 159.745 11.0724 161.874 13.3321C162.293 13.7841 166.422 24.211 172.26 39.5447C177.55 53.5548 182.291 65.7249 182.775 66.6288C184.936 70.7608 187.839 73.4724 191.548 74.8928C192.935 75.4093 194.322 75.6353 197.45 75.7644C201.224 75.8935 201.773 75.8613 204.224 75.0865C209.707 73.3756 212.642 70.1152 213.965 64.3045C214.416 62.2708 214.481 59.0104 214.481 38.5439C214.481 14.1392 214.448 14.4943 215.868 12.977C217.158 11.5567 220.028 11.7181 221.544 13.3321C221.996 13.7841 226.447 25.3731 233.221 43.5798C239.252 59.8174 244.413 73.4079 244.671 73.8275C245.122 74.5054 245.284 74.5377 250.573 74.5377C255.411 74.5377 256.057 74.4732 256.508 73.9567C256.831 73.6338 257.056 72.9882 257.056 72.5363C257.056 71.7615 234.64 11.2338 233.608 9.16783C232.608 7.26323 230.156 4.1965 228.866 3.26034C225.931 1.16204 223.576 0.355009 219.641 0.0644763C211.255 -0.516589 205.32 2.84068 202.772 9.5875C202.095 11.3953 202.063 11.7503 201.902 36.4779C201.74 60.8504 201.708 61.5929 201.095 62.3031C199.966 63.6912 199.547 63.8848 197.837 63.8848C195.838 63.8848 194.838 63.2069 193.87 61.2055C193.515 60.463 189.097 48.9385 184.033 35.574C178.969 22.2095 174.389 10.4591 173.873 9.42609C171.453 4.61615 168.68 2.16277 164.196 0.710107C162.713 0.258167 156.358 -0.129211 154.81 0.161322Z" fill="#00AB55"/>
<path d="M1.06449 0.941043C0.419344 1.61773 0.419344 2.05757 0.419344 36.2301C0.419344 55.2787 0.322572 72.0604 0.225801 73.4814L0 76.0867L17.4512 75.9852C33.7088 75.8837 34.9668 75.8498 35.483 75.2747C35.9668 74.7671 36.0958 73.9551 36.1604 70.098C36.2249 67.5605 36.1926 65.1244 36.0958 64.7184C35.6442 62.8237 35.7733 62.8575 24.2574 62.8575H13.6448L13.5803 32.2715C13.4835 2.73425 13.4513 1.65156 12.8706 0.974875C12.29 0.298192 11.9352 0.264359 6.96756 0.264359C2.12898 0.264359 1.64512 0.332028 1.06449 0.941043Z" fill="#00AB55"/>
<path d="M43.9713 0.927024C43.3271 1.58969 43.3271 2.02042 43.3271 27.8312C43.3271 43.6357 43.456 55.0335 43.6492 56.4251C44.1968 60.2686 44.9698 62.5216 46.6125 65.1392C50.3166 70.9706 56.1142 74.6815 63.3291 75.8412C66.5179 76.3382 75.0533 76.04 77.6301 75.311C80.5289 74.5159 85.1348 72.064 87.164 70.2748C90.5138 67.3259 92.8006 63.6482 93.9924 59.3077C94.6366 56.8227 94.6688 56.1269 94.7976 29.1896C94.8943 1.68909 94.8943 1.62282 94.2501 0.960155C93.6059 0.297491 93.1872 0.264359 88.2913 0.264359C82.6225 0.264359 82.1716 0.396893 81.8173 2.02042C81.7206 2.41802 81.624 14.0146 81.5596 27.7649C81.463 55.4643 81.5274 54.6691 79.3372 57.9824C77.2758 61.13 73.8938 62.6542 68.9335 62.6542C62.8138 62.6542 59.2385 60.4011 57.4026 55.398C56.694 53.4431 56.694 53.2775 56.533 27.5661C56.3719 2.68308 56.3397 1.62282 55.7599 0.960155C55.1802 0.297491 54.8259 0.264359 49.8656 0.264359C45.0342 0.264359 44.5511 0.330626 43.9713 0.927024Z" fill="#00AB55"/>
<path d="M292.037 0.912212C291.465 1.49478 291.401 1.98024 291.401 6.02582C291.401 11.9162 291.21 11.722 296.904 11.8515C302.217 12.0133 303.33 11.6896 303.839 10.039C304.03 9.32701 304.125 7.28804 304.062 5.2167C303.935 0.103095 304.125 0.264919 297.7 0.264919C293.087 0.264919 292.61 0.329649 292.037 0.912212Z" fill="#00AB55"/>
<path d="M292.036 20.9885C291.4 21.6342 291.4 22.054 291.4 47.2391V72.8763L292.068 73.4898C292.641 74.0064 293.34 74.1033 296.903 74.2002C302.214 74.3616 303.327 74.0387 303.804 72.392C304.059 71.5848 304.122 63.4803 304.059 46.4642C303.963 22.6352 303.931 21.6665 303.359 21.0208C302.786 20.375 302.437 20.3427 297.698 20.3427C293.086 20.3427 292.609 20.4073 292.036 20.9885Z" fill="#00AB55"/>
<path d="M267.076 62.2798C266.665 62.8676 266.57 64.0105 266.57 67.8311C266.57 74.2967 266.221 73.9702 272.906 73.9702C279.591 73.9702 279.243 74.2967 279.243 67.8311C279.243 61.1369 279.654 61.5614 272.906 61.5614C267.742 61.5614 267.552 61.594 267.076 62.2798Z" fill="#00AB55"/>
<path d="M391 38.7037C391 59.9333 373.731 77.1432 352.428 77.1432C331.126 77.1432 313.856 59.9333 313.856 38.7037C313.856 17.4741 331.126 0.26416 352.428 0.26416C373.731 0.26416 391 17.4741 391 38.7037ZM326.526 38.7037C326.526 52.9599 338.123 64.5169 352.428 64.5169C366.733 64.5169 378.33 52.9599 378.33 38.7037C378.33 24.4475 366.733 12.8905 352.428 12.8905C338.123 12.8905 326.526 24.4475 326.526 38.7037Z" fill="#00AB55"/>
</svg>
